<?xml version="1.0" standalone="no"?>
<!DOCTYPE svg PUBLIC "-//W3C//DTD SVG 1.1//EN" "http://www.w3.org/Graphics/SVG/1.1/DTD/svg11.dtd" >
<svg xmlns="http://www.w3.org/2000/svg" xmlns:xlink="http://www.w3.org/1999/xlink" version="1.1">
<metadata></metadata>
<defs>
<font id="nootregular" horiz-adv-x="783" >
<font-face units-per-em="2048" ascent="1638" descent="-410" />
<missing-glyph horiz-adv-x="616" />
<glyph horiz-adv-x="0" />
<glyph horiz-adv-x="682" />
<glyph horiz-adv-x="0" />
<glyph horiz-adv-x="0" />
<glyph unicode=" "  horiz-adv-x="616" />
<glyph unicode="&#x09;" horiz-adv-x="616" />
<glyph unicode="&#xa0;" horiz-adv-x="616" />
<glyph unicode="!" horiz-adv-x="741" d="M122 1470q6 1 16 3.5t43.5 9t68.5 12t86.5 11t102 8t111.5 1.5t118 -7l-162 -1470l-76 -60l-224 -20q-12 116 -29.5 300t-41.5 591t-13 621zM180 -340q0 57 63.5 87t131.5 30q52 0 83 -14t49 -54q5 -8 5 -25q0 -54 -60 -101t-119 -47q-56 0 -104.5 35t-48.5 89z" />
<glyph unicode="&#x22;" horiz-adv-x="850" d="M67 1465l25 27q123 9 288 -6q-22 -398 -28 -604l-8 -10l-224 -2q-6 89 -19 237.5t-23 252.5zM477 887l25 -27q123 -9 288 6q-22 398 -28 604l-8 10l-224 2q-6 -89 -19 -237.5t-23 -252.5z" />
<glyph unicode="#" horiz-adv-x="1431" d="M21 392q-6 27 4.5 72t24.5 76l13 32q107 12 245 22q38 168 69 296l-265 -3l-71 233l22 16q181 -3 344 -7q35 139 84 306q97 -8 153 -33l-55 -318q145 -5 342 -17q37 147 90 328q5 2 13 4.5t31.5 8.5t44 9t44.5 2.5t40 -7.5l-60 -345q163 -12 285 -25q5 -79 -9 -140 l-343 -4l-48 -269q158 4 339 7l22 -16l-1 -223l-344 4l-54 -308l-249 16l-12 24q1 5 23 112t40 188l-307 4l-55 -314l-209 -64l-12 24q4 17 14.5 68.5t23.5 114t26 123.5zM536 607q198 13 278 15l64 274l-293 -4z" />
<glyph unicode="$" horiz-adv-x="1332" d="M93.5 -155q-1.5 75 18.5 167q47 -1 123 -2t237.5 -4t269 -4.5t107.5 -0.5l-13 169l-19 15l-602 59l-20 977q135 25 312 45l-19 197q7 2 20 5t54 9t82.5 8.5t102 0t116.5 -12.5l-18 -179q77 5 132 5l123 -1q3 -9 7.5 -26.5t13.5 -77t12.5 -125.5t-0.5 -171.5t-20 -215.5 l-752 9l25 -257l832 -2l29 -18q3 -53 6.5 -136t2 -251t-18.5 -232q-2 -11 -12 -46l-354 -9l22 -222q-101 -16 -173.5 -14t-111.5 13l-40 11l20 205l-476 -12q-5 9 -11 29t-7.5 95z" />
<glyph unicode="%" horiz-adv-x="1560" d="M20 1196q0 130 62 184q35 31 120.5 43.5t161.5 12.5q65 0 137 -12t99 -40q52 -56 52 -240q0 -160 -42 -212q-29 -37 -142.5 -56.5t-193.5 -19.5q-140 0 -174 36q-37 38 -58.5 135.5t-21.5 168.5zM245 1252q0 -23 3 -40l3 -17l16 -75l21 -30q7 -7 48 -7t78 3l38 2 q0 -1 8 2l16 6l8 3q11 1 19 13.5t12.5 33.5t7.5 42.5t5 48.5v4.5t0.5 4t0.5 4.5q4 46 -16.5 57t-79.5 11q-73 0 -118.5 -8t-54.5 -16l-8 -8q-7 -11 -7 -34zM316 24q381 881 687 1446q11 2 29.5 4t62 -4t71.5 -26l-598 -1486l-244 34zM890 274q0 69 12 147.5t40 110.5 q29 33 122.5 46.5t167.5 13.5q181 0 222 -48q31 -35 48.5 -124t17.5 -154q0 -66 -13 -111.5t-35.5 -73t-63 -42.5t-84.5 -20t-110 -5q-77 0 -166.5 14.5t-117.5 51.5q-40 55 -40 194zM985 282q0 -23 3 -40l3 -17l16 -75l21 -30q7 -7 48 -7t78 3l38 2q0 -1 8 2l16 6l8 3 q11 1 19 13.5t12.5 33.5t7.5 42.5t5 48.5v4.5t0.5 4t0.5 4.5q4 46 -16.5 57t-79.5 11q-73 0 -118.5 -8t-54.5 -16l-8 -8q-7 -11 -7 -34z" />
<glyph unicode="&#x26;" horiz-adv-x="1300" d="M51 397q-8 76 21.5 153t76 132t94.5 99t83 67l34 22l-255 381q47 60 115 107.5t131.5 72t120.5 40t92 19.5l34 5q6 -8 16.5 -23t39 -64.5t52.5 -104t50.5 -139t40.5 -170.5l-137 -184l154 -182l198 138l222 -266l-5 -57l-229 -168l175 -212q-117 -64 -119 -64l-35 6 l-147 216l-258 -190q-223 -13 -226 -13zM307 448q-2 -35 24 -64.5t53 -41.5l26 -12q49 -4 61 3q18 1 147 79l15 9l-167 183q-95 -52 -126 -88t-33 -68zM353 1157l125 -160q82 37 92 99q3 19 -8.5 43t-24.5 38l-13 14q-33 23 -47 30q-10 4 -39 -10.5t-53 -30.5l-24 -17z" />
<glyph unicode="'" horiz-adv-x="786" d="M32 1800q26 15 74 40.5t205 92.5t324 119q11 -17 28 -46.5t50 -107.5t41 -141q-380 -225 -519 -299q-8 -4 -29 2t-24 4z" />
<glyph unicode="(" horiz-adv-x="770" d="M46 676q4 67 10 134.5t19 164t30 184t45.5 186t63.5 179t85 153.5t108.5 119t136.5 66.5t166 5.5q-62 -33 -112 -117t-79.5 -192t-50.5 -231.5t-29.5 -240.5t-13 -212t-3.5 -153v-58q-2 -83 -2.5 -201.5t13.5 -268t35 -285t62 -251.5t95 -167l13 -40l-31 -29 q-110 43 -206.5 155.5t-162 255t-112.5 301t-66.5 299.5t-13.5 243z" />
<glyph unicode=")" horiz-adv-x="729" d="M26 1868q88 15 166 -5.5t136.5 -66.5t108.5 -119t85 -153.5t63.5 -179t45.5 -186t30 -184t19 -164t10 -134.5q6 -102 -13.5 -243t-66.5 -299.5t-112.5 -301t-162 -255t-206.5 -155.5l-32 29l14 40q45 43 81.5 132t58 196.5t37.5 231.5t21 237t7.5 214t-2.5 162q-2 2 0 36 t-1 97.5t-5.5 143t-13 173t-23 186.5t-35.5 184.5t-51 167t-69 133t-90 83.5z" />
<glyph unicode="*" horiz-adv-x="1076" d="M88 810l224 210l-220 222q16 38 41 69t49 48t45.5 28.5t34.5 14.5l14 4l194 -284l24 378q10 1 30.5 0t88 -18.5t141.5 -53.5l-58 -274l276 90l42 -224l-290 -38l212 -232l-246 -152l-174 280l-196 -270l-44 20z" />
<glyph unicode="+" horiz-adv-x="1084" d="M112 888l246 22l-18 272l272 12l12 -266l278 10l14 -236l-272 -14l30 -352l-272 -11l-26 23v316h-247z" />
<glyph unicode="," horiz-adv-x="558" d="M82 42q-12 94 12 126q1 2 4.5 4.5t19.5 9.5t42.5 9.5t73.5 4.5t114 -5q82 -7 117 -29.5t24 -84.5l-130 -430l-32 -12l-136 21l55 195l-29 34l-97 7l-25 45z" />
<glyph unicode="-" d="M63 918l656 10l-6 -332l-609 31l-40 17q-1 270 -1 274z" />
<glyph unicode="." horiz-adv-x="501" d="M82 84q0 57 63.5 87t132.5 30q52 0 83 -14t49 -54q5 -8 5 -25q0 -54 -60.5 -101t-118.5 -47q-56 0 -105 35t-49 89z" />
<glyph unicode="/" horiz-adv-x="1041" d="M46 44q381 881 687 1446q23 0 58 -1.5t106 -13t99 -31.5l-598 -1486l-344 54z" />
<glyph unicode="0" horiz-adv-x="1458" d="M78.5 1034q0.5 192 25.5 356q4 5 11.5 13.5t22.5 25t24.5 25.5t8.5 4q-1 -3 64 6t183.5 21.5t258.5 19.5t316 -3.5t330 -43.5l39 -50q4 -33 9 -91t9 -227t-5.5 -325.5t-47.5 -353t-104 -343.5l-14 -14t-28 -27.5t-31.5 -30.5t-12.5 -11l-40 -7q-40 -6 -107 -14 t-150.5 -14.5t-176.5 -5t-179 12t-163 39.5t-123 75l-19 69q-7 27 -17.5 75.5t-34 195t-36.5 289t-12.5 334.5zM394.5 894q0.5 -146 7.5 -308l7 -161l25 -147l38 -52q13 -11 88.5 -11t144.5 4.5t69 3.5t14.5 3.5t29.5 9.5l14 6q28 2 45.5 163.5t26.5 381t11 235.5 q3 34 -3 56t-17 34t-37.5 18t-50.5 7.5t-69 1.5q-85 0 -150 -6t-98 -14t-53.5 -16t-25.5 -14l-5 -6q-12 -43 -11.5 -189z" />
<glyph unicode="1" d="M89.5 1135q2.5 85 6.5 150l4 65q7 5 20 13.5t64.5 30.5t114.5 40.5t171.5 37t232.5 25.5l-27 -1498l-284 -19l-37 23q-23 937 -23 942l-11 15l-231 9q-3 81 -0.5 166z" />
<glyph unicode="2" horiz-adv-x="1332" d="M112.5 263.5q-2.5 154.5 3.5 277.5l6 123l30 18l832 2l25 257l-752 -9q-25 197 -22 327t19 195l16 64l122 1q91 1 336 -20.5t446 -57.5l-20 -947l-602 -59l-19 -15q-12 -167 -12 -169q0 -1 184 2l368 6l184 3q12 -58 16.5 -109.5t2.5 -83t-6 -55t-8 -33.5l-5 -10 l-1113 28l-12 46q-17 64 -19.5 218.5z" />
<glyph unicode="3" horiz-adv-x="1368" d="M92.5 1243.5q-1.5 99.5 5.5 156.5l8 58q15 4 44.5 10t132.5 19t218 19t300 2t381 -24l-62 -1510l-997 -17q-7 94 -2 157.5t15 95.5l9 32l739 33l-9 139l-35 28l-476 -3q-49 95 2 281q15 55 18 54q0 -3 111 -7t222 -7l111 -2l-11 275l-704 27q-19 84 -20.5 183.5z" />
<glyph unicode="4" horiz-adv-x="1426" d="M77 964q-1 233 3 372l4 138q13 1 34 3t79 6.5t107 7t100 2t75 -4.5l18 -674l25 -19l319 -8l-23 705q15 8 41.5 19.5t103 29.5t146.5 14v-734l247 -8q4 -25 9.5 -66.5t14.5 -137.5t8 -156l-282 11l26 -454q-75 -12 -141.5 -12t-96.5 6l-29 6l-17 458l-39 31l-722 43 q-9 189 -10 422z" />
<glyph unicode="5" horiz-adv-x="1332" d="M93.5 115q-1.5 75 18.5 167q47 -1 123 -2t237.5 -4t269 -4.5t107.5 -0.5l-13 169l-19 15l-602 59l-20 917q201 36 446 57.5t336 20.5l123 -1q3 -7 7.5 -20t13.5 -62.5t12.5 -107.5t-0.5 -157t-20 -209l-752 9l25 -257l832 -2l29 -18q3 -53 6.5 -136t2 -251t-18.5 -232 q-2 -11 -12 -46l-1113 -28q-5 9 -11 29t-7.5 95z" />
<glyph unicode="6" horiz-adv-x="1419" d="M151.5 137q-1.5 84 0.5 309.5t11.5 412.5t36.5 375.5t69 264.5q769 -47 1018 -77l-15 -403q-320 11 -499 11q-214 0 -223 -28q-17 -54 -22 -111.5t-2 -88.5l4 -30q691 -32 748 -44q4 -23 9 -47.5t7.5 -36t4 -33t1.5 -52.5q0 -86 -4 -284.5t-9 -260.5q-84 -30 -532.5 -30 t-600.5 19q-1 50 -2.5 134zM491 319q0 -20 6 -31q21 -48 60 -65.5t102 -17.5q51 0 103 13t95 47.5t43 83.5q0 66 -60 109t-129 43q-72 0 -146 -58t-74 -124z" />
<glyph unicode="7" horiz-adv-x="1200" d="M51 879l44 570q10 2 28 5t76.5 11t120 15t154.5 14.5t184 11.5t203 3.5t218 -7.5q-6 -61 -15 -161.5t-28.5 -313t-32 -353.5t-11.5 -140l154 17q19 -141 -3 -238l-1 -4q-6 1 -45 0.5t-84 -1.5l-45 -2l-32 -283l-38 -32q2 0 -72 6.5t-149 13.5l-75 7l58 310l-375 -38 q-20 34 -23 99.5t4 113.5l7 48l406 44l33 247l-17 25l-609 -15z" />
<glyph unicode="8" horiz-adv-x="1420" d="M120 1059.5q-7 116.5 3.5 191t25 130t27.5 79.5l14 25q26 2 71 5t179.5 7.5t262 3.5t292.5 -11t297 -32q1 -19 3 -51t3 -123.5t-3.5 -174.5t-21 -183t-43.5 -169l-110 -55q2 -191 4 -196q1 -2 21 -6.5t39 -7.5l20 -3q-1 -97 -14.5 -185t-32 -143.5t-37.5 -97.5t-32 -61 l-13 -18l-786 20l-42 22q-21 43 -37.5 90t-27.5 89t-19 84.5t-12 79.5t-6 70t-2 58.5t0.5 44t1.5 28t2 8.5t24.5 7t46.5 16t23 5t-2 43t-4 93l-2 47l-78 24q-28 130 -35 246.5zM484 443q0 -66 60 -109t129 -43q72 0 146 58t74 124q0 20 -6 31q-21 48 -60 65.5t-102 17.5 q-51 0 -103 -13t-95 -47.5t-43 -83.5zM484 963q0 -66 60 -109t129 -43q72 0 146 58t74 124q0 20 -6 31q-21 48 -60 65.5t-102 17.5q-51 0 -103 -13t-95 -47.5t-43 -83.5z" />
<glyph unicode="9" horiz-adv-x="1306" d="M74 863q0 92 4 317.5t9 287.5q88 32 541.5 50t591.5 1q1 -53 2.5 -141.5t-0.5 -326.5t-11.5 -434t-36.5 -392t-69 -272q-769 17 -1018 47l15 403q320 -11 499 -11q214 0 223 28q17 54 22 111.5t2 88.5l-4 30q-15 22 -187.5 30t-357 9t-203.5 5q-4 23 -9 47.5t-7.5 36 t-4 33t-1.5 52.5zM474 1153q0 -66 60 -109t129 -43q72 0 146 58t74 124q0 20 -6 31q-21 48 -60 65.5t-102 17.5q-51 0 -103 -13t-95 -47.5t-43 -83.5z" />
<glyph unicode=":" horiz-adv-x="503" d="M80 120q0 57 63.5 87t131.5 30q52 0 83 -14t49 -54q5 -8 5 -25q0 -54 -60 -101t-119 -47q-56 0 -104.5 35t-48.5 89zM80 570q0 57 63.5 87t131.5 30q52 0 83 -14t49 -54q5 -8 5 -25q0 -54 -60 -101t-119 -47q-56 0 -104.5 35t-48.5 89z" />
<glyph unicode=";" horiz-adv-x="582" d="M80 640q0 57 63.5 87t131.5 30q52 0 83 -14t49 -54q5 -8 5 -25q0 -54 -60 -101t-119 -47q-56 0 -104.5 35t-48.5 89zM112 152q-12 94 12 126q1 2 4.5 4.5t19.5 9.5t42.5 9.5t73.5 4.5t114 -5q82 -7 117 -29.5t24 -84.5l-130 -430l-32 -12l-136 21l55 195l-29 34l-97 7 l-25 45z" />
<glyph unicode="&#x3c;" horiz-adv-x="930" d="M36 685q441 337 746 525l96 -327l-507 -214l450 -187l39 -28l1 -169l-51 -37q5 1 -188.5 110.5t-389.5 217.5z" />
<glyph unicode="=" horiz-adv-x="1154" d="M41 877l18 301l1007 -72l39 -19q-9 -239 -9 -243q0 -1 -263.5 7.5t-527.5 16.5zM53 708l1056 10l-6 -272l-1009 31l-40 17q-1 210 -1 214z" />
<glyph unicode="&#x3e;" horiz-adv-x="930" d="M46 883l96 327q136 -84 322.5 -215t305.5 -221l118 -89q-50 -27 -131 -72t-252 -140.5t-283 -159.5t-108 -65l-51 37l2 169l39 28q379 155 450 187z" />
<glyph unicode="?" horiz-adv-x="1306" d="M64 783q0 96 4 340t9 305q173 20 595 43t538 8q6 -97 14 -246t17.5 -436t1.5 -369l-20 -197q-1 -16 -4 -38q-1 -10 -9.5 -20.5t-16.5 -16.5l-8 -6q-34 -10 -95.5 -13t-105.5 -1l-44 3l-10 -10q-2 -17 -2 -31l1 -167q-46 -15 -92 -21t-78.5 -4.5t-59 5.5t-40.5 7l-14 4 q-1 -1 -1 22.5t0.5 61t1 83t1 91.5t1 84t0.5 62l1 23l13 15h73q114 0 121 52q9 54 4.5 88t-26.5 66q-15 22 -187.5 30t-357 9t-203.5 5q-4 23 -9 47.5t-7.5 36t-4 33t-1.5 52.5zM620 -400q0 57 63.5 87t131.5 30q52 0 83 -14t49 -54q5 -8 5 -25q0 -54 -60 -101t-119 -47 q-56 0 -104.5 35t-48.5 89z" />
<glyph unicode="@" horiz-adv-x="1458" d="M78.5 994q0.5 192 25.5 356q4 5 11.5 13.5t22.5 25t24.5 25.5t8.5 4q-1 -3 64 6t183.5 21.5t258.5 19.5t316 -3.5t330 -43.5l39 -50q4 -33 9 -91t9 -227t-5.5 -325.5t-47.5 -353t-104 -343.5l-14 -14t-28 -27.5t-31.5 -30.5t-12.5 -11l-40 -7q-40 -6 -107 -14 t-150.5 -14.5t-176.5 -5t-179 12t-163 39.5t-123 75l-19 69q-7 27 -17.5 75.5t-34 195t-36.5 289t-12.5 334.5zM353 880.5q2 -128.5 5.5 -255t7.5 -213.5l3 -87l29 -171l44 -60q6 -4 39.5 -7t83 -3.5t107.5 -0.5t116.5 1t104.5 2t76 2t28 1q-41 15 -72.5 28t-42.5 19l-11 5 q-1 1 -57 90q-55 -7 -122.5 -11.5t-107.5 -5.5l-41 -2q-27 50 -43.5 103t-20.5 93t-4 72.5t3 49.5l3 17q90 83 405 83q0 41 -14.5 75t-35 53t-41 31.5t-34.5 16.5l-14 5l-278 14l16 215q210 16 567 -25q4 -69 7.5 -167.5t-1.5 -165.5l-90 -425l132 -100l58 -21 q25 63 41 282.5t25 460t11 267.5q4 39 -3 64.5t-20 39.5t-44 21t-58 8.5t-80 1.5q-155 0 -321 -16.5t-255 -32.5l-88 -16q-9 -13 -12 -110t-1 -225.5zM667 439q1 -32 6 -63l5 -32q5 -34 9 -41q3 -5 37 -6t66 1l33 1l17 10l13 195q-3 5 -88.5 -1.5t-91.5 -15.5q-7 -16 -6 -48 z" />
<glyph unicode="A" horiz-adv-x="1157" d="M54 71q24 498 115 1407q51 13 113 20q62 6 130 8q51 1 96 2h29q57 0 127.5 -5.5t106.5 -8t93 -8.5l57 -6q19 -165 85 -666.5t93 -788.5q-13 0 -139 -2q-63 -1 -99.5 -1t-47.5 1q-13 48 -16 65.5t-32 216.5l-181 12l-15 -308l-481 24zM522 866l5 -293l247 -14l-20 321 q-77 5 -129 5q-93 0 -102 -17z" />
<glyph unicode="B" horiz-adv-x="1360" d="M185 1471l14 16q125 33 285 37q37 1 75 1q127 -1 263 -11q178 -14 192 -13l119 -18q4 -13 10 -35t17.5 -86t15.5 -123q2 -24 2 -51q0 -38 -4 -80q-6 -72 -29 -126q-11 -12 -67 -56t-67 -56l220 -113q4 -13 10 -36t15 -97q8 -63 8 -130v-22q-2 -78 -23 -192.5t-64 -225.5 l-36 -19l-406 -10l-534 33q-1 170 -5 530q-4 362 -8 622q-3 203 -3 248v13zM422 1236q-7 -80 -7 -140q0 -79 12 -123l237 -14q28 47 40 99q7 29 8 59q0 22 -4 45q-10 52 -44 88zM466 746q-9 -106 -9 -185q0 -101 15 -157l308 -18q37 62 53 128q9 38 9 77q0 29 -5 57 q-12 68 -57 116z" />
<glyph unicode="C" horiz-adv-x="1262" d="M92 1040q4 131 12 240.5t16 169.5l7 59q46 6 131 6q128 1 346 -13q362 -22 546 -44q5 -62 9 -287.5t4 -317.5l-23 -155q-2 -19 1 -14q-19 -4 -196 -5t-342 -9t-180 -30q-17 -24 -24.5 -53.5t-6.5 -46.5l1 -18q32 -125 40 -142q10 -15 93.5 -21.5t129.5 -6.5q86 0 192 6 q91 5 178 5h29l5 -373q-111 -13 -315.5 -32.5t-353.5 -31.5l-149 -13q-86 220 -122 510q-20 151 -26 319q-4 99 -3 185q-1 59 1 113z" />
<glyph unicode="D" horiz-adv-x="1365" d="M187 1109v109q0 250 4 279q49 1 129 3q15 0 31 1q71 0 165 -9q116 -11 226.5 -28.5t221 -57t180.5 -94.5q51 -92 85.5 -297t40.5 -390q1 -24 1 -47q0 -144 -28 -236q-32 -106 -141 -230q-22 -25 -123.5 -44.5t-231 -29.5t-256 -16.5t-212.5 -7.5l-86 -2zM482 936 q-7 -214 -7 -350q0 -179 12 -223l237 -14q26 47 40 177q8 73 8 146q0 57 -4 113q-10 129 -44 165z" />
<glyph unicode="E" horiz-adv-x="1333" d="M188 1022q2 240 3 313q2 28 12 64t19 58l10 22l858 22l63 -4q5 -25 11.5 -67t6.5 -144t-23 -172q-67 -9 -470 -29q-1 -17 -2 -45v-8q0 -30 6 -94q8 -74 28 -129l259 1q8 0 20.5 0.5t39.5 1t45 1t17 1.5t3 -24l8 -50l4 -25v-124q-168 -12 -493 -15l-7 -253l25 -27l488 -4 q-26 2 -28 4q-1 1 10.5 -6.5t22.5 -15.5l12 -7l10 -284l6 2q-9 4 -138 4q-52 0 -122 -1h-54q-120 0 -238 4q-144 4 -220 9.5t-90 8.5q-4 1 -7.5 3.5t-7 7.5l-7 10t-7.5 14t-6.5 15t-7 17.5t-7 18t-7.5 20t-7 19.5q-20 55 -30 351q-8 247 -8 455v81z" />
<glyph unicode="F" horiz-adv-x="1252" d="M151 1335q2 28 12 64t19 58l10 22l858 22l63 -4q5 -25 11.5 -67t6.5 -144t-23 -172q-67 -9 -470 -29q-1 -17 -2 -45v-8q0 -30 6 -94q8 -74 28 -129l259 1q8 0 20.5 0.5t39.5 1t45 1t17 1.5t3 -24l8 -50l4 -25v-124q-228 -12 -553 -15l-17 -41l30 -512l-29 -24l-298 1z " />
<glyph unicode="G" horiz-adv-x="1241" d="M98 788q-2 59 -2 115q0 91 4 175q7 134 14.5 240.5t15.5 168.5l7 62q40 5 104 5q213 0 699 -56q5 -63 9 -256.5t4 -278.5q-1 -3 -1.5 -8.5t-3.5 -21.5t-5.5 -31t-5 -34t-4.5 -33.5t-3 -26t-1 -14.5h2q-2 -6 -2 0q-21 -4 -143.5 -5.5t-230 -9.5t-122.5 -29 q-17 -24 -24.5 -53.5t-6.5 -46.5l1 -18q32 -335 40 -352q10 -15 93.5 -21.5t129.5 -6.5q54 0 118 2l-8 165l-107 7l-9 125q11 2 30.5 5.5t82 12t120.5 12t145 6.5q22 1 43 1q62 0 114 -7l23 -264l-142 -11l-6 -276q-111 -13 -315.5 -32.5t-353.5 -31.5l-149 -13 q-53 101 -88 243.5t-48.5 290t-17.5 301.5z" />
<glyph unicode="H" horiz-adv-x="1310" d="M185 1424q7 2 19.5 4.5t50.5 9t69 8.5t76 4q8 0 15 1q34 0 56 -6l-6 -515q0 -2 4.5 -8t8.5 -11l4 -5l203 7l5 158l14 434q13 2 35.5 4.5t86.5 6.5q49 3 93 2h25q56 -1 118.5 -11.5t100.5 -31.5l21 -1475q-413 14 -413 30q0 7 -5 142t-10 267.5t-5 133.5q-7 1 -49 0.5 t-92 -1.5l-49 -1q-2 -35 -4.5 -92t-7.5 -177q-5 -122 -8 -202q-2 -60 -2 -75v-5q-281 12 -284 13q-44 15 -49 20z" />
<glyph unicode="I" horiz-adv-x="873" d="M99 110q-2 22 -2 54q1 50 5 124q6 120 34 164l150 -1q-2 164 -2 291q0 159 3 260l-133 4l-18 14q-9 8 -16.5 132.5t-9.5 245.5l-3 121q31 9 147 18q87 7 190 7q34 0 70 -1q142 -3 206 -25q2 -13 4 -35t7.5 -83.5t8.5 -115.5t3 -114t-6 -96q-158 -6 -183 -9 q-4 -228 -17 -687q15 -2 84.5 -6t75.5 -4q6 -49 6 -102q1 -22 -1 -46q-4 -78 -13 -142l-9 -64q-65 -22 -197 -25q-33 -1 -64 -1q-94 0 -174 7q-106 9 -138 18q-4 38 -8 97z" />
<glyph unicode="J" horiz-adv-x="1353" d="M106 309q-1 49 -1 89q0 65 2 108q4 71 16 224q154 12 223 12q4 1 7 1q68 0 168 -11l19 -303q7 -4 32 -4q17 0 41 1q62 5 134 14l72 8q-13 423 -18 685q-28 -3 -49.5 -2t-34.5 3l-13 2l-18 14q-23 72 -30 147q-5 49 -5 82q0 18 1 31l5 39q32 9 125 17q72 7 160 7 q26 0 53 -1q120 -2 185 -24q2 -10 4 -26.5t7.5 -64.5t8.5 -91t3 -94.5t-6 -87.5q-50 -3 -124 -11q7 -259 14.5 -496t11.5 -345l4 -108l-53 -52q-26 -10 -116.5 -29t-123.5 -23q-114 -11 -222 -11q-50 0 -98 3q-153 7 -259 24l-106 18q-17 128 -19 255z" />
<glyph unicode="K" horiz-adv-x="1328" d="M190 633v155q0 249 4 442l6 250l50 15q22 2 46 2q98 0 227 -30q2 0 2 -71q0 -105 -5 -368q100 121 209 235.5t168 168.5l59 54l48 -11q25 -20 63 -53q39 -32 117 -110q110 -109 109 -129q1 -6 -95 -99q-98 -95 -245.5 -234.5t-209.5 -200.5q60 -72 155.5 -201t161.5 -222 l66 -93l-144 -119l-56 14q-405 408 -468 488l-12 -467l-205 1l-34 46q-15 191 -17 537z" />
<glyph unicode="L" horiz-adv-x="1225" d="M190 590v163q0 263 4 469l6 268l50 15q20 2 42 2q92 0 221 -30q4 -1 4 -117q0 -197 -11 -726q288 -2 674 -46q13 -173 13 -445l-24 -149l-23 -23l-905 19l-34 46q-15 190 -17 554z" />
<glyph unicode="M" horiz-adv-x="1445" d="M180 593v164q0 265 4 473l6 270l50 15q9 1 26 3q16 0 62 2q20 1 39 1q25 0 49 -1q42 -2 91 -12.5t83 -28.5l223 -302l157 253l50 15q26 2 53 2q111 0 240 -30q3 0 3 -77q0 -89 -4 -281q-7 -357 -16 -713l-10 -357l-275 -19l-8 517l-221 -165l-202 279q11 -365 10 -387 l-4 -235l-32 -10l-323 21l-34 46q-15 191 -17 557z" />
<glyph unicode="N" horiz-adv-x="1310" d="M160 553v145q0 234 4 412l6 230l50 15q40 2 78 2q157 0 285 -30l1 -1q202 -408 211 -428l107 -261l8 863q2 6 14.5 9.5t23.5 4.5l12 1q20 2 42 2q92 0 221 -30q3 0 3 -82q0 -95 -4 -299q-7 -380 -16 -758l-10 -379l-385 11q-127 209 -138 227l-183 324q11 -296 10 -317 l-4 -225l-32 -10l-253 11l-34 46q-15 191 -17 517z" />
<glyph unicode="O" horiz-adv-x="1278" d="M108 1034q0 192 26 356l67 68q15 5 43.5 12t121.5 21q94 15 195 19q28 1 61 1q84 -1 194 -9q154 -12 307 -44l39 -50q4 -33 9 -91t9 -227q1 -50 1 -99q0 -117 -6 -227q-10 -156 -48 -352.5t-104 -343.5l-14 -14t-28 -27.5t-31.5 -30.5t-12.5 -11l-27 -7q-27 -6 -74 -14 t-106 -14q-48 -5 -102 -6h-26q-68 2 -133.5 12.5t-130 39.5t-110.5 75l-19 69q-7 27 -17.5 75.5t-33.5 194.5q-24 148 -37 290q-13 137 -13 320v14zM374 759q0 -60 6 -123l4 -64l18 -103l27 -36q9 -8 67 -8t111 3t53 2t10 2.5t20 7.5l11 4q12 1 22 29.5t15.5 75.5t9 91 t6.5 94t5 66q1 9 1 16q0 40 -22 52q-26 14 -103 14q-94 0 -157.5 -10t-79.5 -20l-16 -10q-8 -22 -8 -76v-7z" />
<glyph unicode="P" horiz-adv-x="1243" d="M175 1414l53 52q26 10 116.5 29t123.5 23q114 11 222 11q50 -1 98 -3q152 -8 259 -24l106 -18q15 -112 15 -290q0 -265 -33 -676q-149 -11 -267 -13q-52 -1 -91 -1q-48 0 -75 2q-48 2 -129.5 10.5t-100.5 10.5v-496l-43 -21l-217 15zM412 862q-1 -12 1.5 -36.5t5.5 -43.5 l3 -18q7 -1 17.5 -3t34 -4.5t36.5 -1.5h6q17 -1 62 3q55 4 104 10l48 6q10 54 10 112.5t-6 103.5l-5 46l-307 -5q-1 -16 -3.5 -40.5t-5 -70.5t-1.5 -58z" />
<glyph unicode="Q" horiz-adv-x="1392" d="M96 1038q3 188 28 352l67 68q16 5 44.5 12t124 21t197.5 19q29 1 62 1q84 0 195 -9q155 -11 309 -44l39 -50q1 -22 2.5 -60.5t1.5 -155.5q1 -11 1 -21q0 -106 -5 -211q-5 -115 -22 -271t-45 -291l7 1q29 0 40 5q8 1 38.5 15.5t57.5 28.5l26 14l37 -10l77 -148l-281 -192 h-22l-148 89l-1 -5q-2 -5 -3 -10l-1 -6q-12 -49 -92 -85t-187 -49q-49 -6 -101 -6q-63 0 -130 8q-124 16 -214 63l-19 69q-6 25 -15 71t-29 185.5t-31 277.5q-8 111 -8 254v70zM364 759q1 -60 6 -123l4 -64l18 -103l27 -36q9 -8 67 -8t111 3t53 2t10 2.5t20 7.5l11 4 q12 1 22 29.5t15.5 75.5t9 91t6.5 94t5 66q1 9 1 16q0 41 -22 52q-27 14 -103 14q-94 0 -157.5 -10t-79.5 -20l-16 -10q-8 -22 -8 -76v-7z" />
<glyph unicode="R" horiz-adv-x="1356" d="M175 1434l53 52q30 11 190 32q144 14 284 14h50q164 -3 282 -16l119 -12q13 -97 13 -210q0 -134 -18 -292q-34 -290 -113 -428q244 -247 308 -347q-23 -21 -80 -80.5t-97 -92.5l-117 -67l-5 -3q-1 1 -9.5 2t-16.5 2l-8 1l-320 517q-51 3 -123.5 11t-94.5 10v-496l-43 -21 l-217 15zM412 862q-1 -12 1.5 -36.5t5.5 -43.5l3 -18q7 -1 17.5 -3t34 -4.5t36.5 -1.5h6q17 -1 62 3q55 4 104 10l48 6q10 54 10 112.5t-6 103.5l-5 46l-307 -5q-1 -16 -3.5 -40.5t-5 -70.5t-1.5 -58z" />
<glyph unicode="S" horiz-adv-x="1321" d="M112 724q0 186 15.5 417t36.5 259q26 36 28 37q14 11 436 38q335 21 427 21q24 0 32 -1q15 -3 27 -381q5 -162 5 -254q0 -124 -9 -126q-10 -2 -185.5 -2t-346.5 1l-170 1l-14 -140l846 -45l16 -17q-22 -498 -43 -507l-1040 20q-7 14 -11.5 81.5t-5.5 128.5v61 q20 35 23 37q421 -58 444 -58q14 85 22 147q-170 8 -302.5 24t-180.5 28l-47 11q-3 28 -3 169v50z" />
<glyph unicode="T" horiz-adv-x="1172" d="M51 1006v54q0 188 12 320l14 149q46 6 131 6q128 1 346 -13q362 -22 546 -44q5 -66 12 -219t11 -333q1 -51 1 -93q0 -104 -7 -149q-22 -1 -145 -10.5t-239 -15.5l-17 -649l-245 21l-34 46q-15 193 -17 566q-48 -2 -128 -4.5t-138 -4.5t-68 -3q-33 152 -35 376z" />
<glyph unicode="U" horiz-adv-x="1427" d="M185 93q3 28 6 619t11 717q54 4 138 4q72 0 168 -3q206 -6 247 -17q1 -21 1 -52q0 -80 -4 -231q-5 -211 -10.5 -406.5t-5.5 -213.5l255 17q-1 90 -1 187q0 122 2 254q2 238 5 375l3 137l50 15q20 2 42 2q92 0 221 -30q2 0 2 -55q0 -86 -5 -308q-10 -362 -22 -724 l-12 -361l-1072 39z" />
<glyph unicode="V" horiz-adv-x="1307" d="M95 1249l16 44q8 6 22.5 16t59 37.5t88 50.5t103 46t111.5 33q3 0 51.5 -142t95.5 -284l47 -142l221 534l58 14q4 1 11.5 2t33.5 -0.5t56 -8.5t78 -27q99 -41 99 -50q0 -7 -80 -246q-82 -245 -169 -508t-95 -289l-97 -355l-272 34z" />
<glyph unicode="W" horiz-adv-x="1380" d="M140 47q-3 0 -3 77q0 89 4 281q7 357 17 713l9 357l275 9l28 -997l107 198l64 117l232 -308l-11 786l5 225l32 10l323 -11l34 -46q14 -191 16 -557q0 -73 1 -143q0 -278 -5 -494l-5 -270l-50 -15q-9 -1 -25 -3q-17 0 -63 -2q-20 -1 -39 -1q-24 0 -48 1q-42 2 -91.5 12.5 t-83.5 28.5l-243 352l-157 -323l-50 -15q-13 -2 -36 -4q-8 -1 -21 -1q-26 0 -74 3q-72 4 -142 20z" />
<glyph unicode="X" horiz-adv-x="1448" d="M106 1297l31 42q151 135 228 135q8 0 283 -384q72 117 141 224t102 156l33 48l51 -13q33 -18 84 -48.5t161 -104.5q164 -110 164 -124q0 -4 -48 -80q-50 -78 -156 -244t-188 -296l308 -440l-197 -146l-55 17q-28 32 -119.5 153t-109.5 143l-208 -329l-407 245l-5 57 q80 162 272 486q-88 120 -179.5 245.5t-138.5 191.5z" />
<glyph unicode="Y" horiz-adv-x="1426" d="M76 1297l31 42q151 135 228 135q8 0 283 -384q72 117 141 224t102 156l33 48l51 -13q33 -17 84 -46t161 -100q164 -105 164 -121q0 -4 -104 -116q-105 -113 -246 -261t-223 -229q-4 -68 -5 -221v-145v-128v-119l-255 31l-34 46q-15 191 -15 369q0 151 11 294l-2 5 q-88 120 -189.5 253t-158.5 207z" />
<glyph unicode="Z" horiz-adv-x="1303" d="M131 986v54q0 188 12 320l14 149q46 6 131 6q128 1 346 -13q362 -22 546 -44q5 -66 12 -219t11 -333q1 -51 1 -93q0 -104 -7 -149q3 -8 -457 -340q95 0 187.5 -2.5t137.5 -5.5l45 -2l15 -50q2 -18 2 -39q0 -85 -30 -214q0 -3 -50 -3q-58 0 -183 4q-232 7 -464 16l-231 10 l-19 215q133 107 548 394q-481 -32 -532 -37q-33 152 -35 376z" />
<glyph unicode="[" horiz-adv-x="642" d="M52 643q6 330 16 635.5t20 499.5l11 195l37 33l442 -16l12 -398l-258 -34l42 -1646l192 -34l6 -374l-49 -30l-427 36q-29 170 -39.5 486.5t-4.5 646.5z" />
<glyph unicode="\" horiz-adv-x="1041" d="M46 1464q28 20 93.5 31.5t117.5 12.5l52 2q306 -565 687 -1446l-8 -32l-344 -54z" />
<glyph unicode="]" horiz-adv-x="642" d="M36 1592l12 398l442 16l37 -33q4 -75 11 -204t20 -481.5t17 -654t-6 -627.5t-39 -496l-427 -36l-49 30l6 374l192 34q36 1446 42 1646z" />
<glyph unicode="^" horiz-adv-x="1022" d="M30 752q1 -5 116 185t230 383l114 192q324 -451 502 -762l-330 -86l-198 514l-201 -444l-29 -38l-169 4z" />
<glyph unicode="_" horiz-adv-x="1164" d="M3 278l1156 20l-6 -302l-1109 31l-40 17q-1 230 -1 234z" />
<glyph unicode="`" horiz-adv-x="1914" d="M696 1478l174 248l319 -304l-1 -42l-102 -162q-326 199 -390 260z" />
<glyph unicode="a" horiz-adv-x="1077" d="M113 698l20 494q92 7 199 7t229 -7q244 -14 395 -32q5 -76 10 -289q2 -89 2 -153q0 -90 -4 -133l-115 -541l108 -78l-96 -118l-41 6l-235 92q-1 2 -2.5 5.5t-5.5 12t-7.5 16.5t-7.5 15.5t-6.5 11.5t-2.5 3q-70 -8 -156.5 -14t-138.5 -8l-51 -2q-35 64 -56 132t-26 118.5 t-5 92t4 63.5l4 21q115 106 516 106q0 31 -8.5 56.5t-17.5 36.5l-8 10l-23 38zM424 259.5q1 -30.5 6 -60.5l5 -30q4 -32 8 -39q3 -4 35 -5t63 1l31 1l16 9l12 185q-1 2 -15 2q-21 0 -69 -4q-81 -6 -86 -14q-7 -15 -6 -45.5z" />
<glyph unicode="b" horiz-adv-x="1164" d="M110 632q0 116 -1 226q0 294 3 546l5 345l43 13q35 1 67 1q146 0 257 -25l1 -373l-11 -231h48.5t114 -5.5t154 -16t145.5 -34.5t111 -57q2 -24 5 -66q3 -41 4 -159v-30q0 -100 -6 -192q-7 -104 -31.5 -225t-66.5 -198q-3 -4 -9 -11t-29.5 -25.5t-51 -33t-75.5 -27 t-102 -14.5q-15 0 -40 0.5t-84.5 10t-98.5 28.5l-11 -57l-299 -19l-29 39q-11 164 -13 590zM463 533l18 -285l25 -13q80 -5 128 -5q65 0 71 9q3 5 6 20t5 27l1 13q1 7 3 19t6.5 44t6.5 58t0.5 52.5t-8.5 36.5q-9 12 -133 21q-75 5 -107 5q-20 0 -22 -2z" />
<glyph unicode="c" horiz-adv-x="975" d="M87 544l33 619q31 4 96 3q100 0 280 -8q296 -16 411 -30q9 -113 9 -412l-16 -114l1 -2q-13 -3 -133.5 -3.5t-232.5 -6t-123 -20.5q-12 -16 -17 -36t-5 -32l1 -12q22 -225 27 -237q7 -10 65 -14.5t87 -4.5q60 0 133 4t139 4l4 -185q-442 -52 -648 -52q-22 7 -41.5 65 t-32 136t-21 155t-12.5 130z" />
<glyph unicode="d" horiz-adv-x="1164" d="M109 792.5q0 102.5 5 165.5l4 63q36 33 108.5 57t150 34.5t149.5 16t118 5.5h47l-11 231v207q0 166 1 166q60 14 141 20q69 5 117 5h15l51 -1l43 -13q10 -590 10 -992q0 -511 -16 -715l-29 -39l-299 19l-11 57q-39 -19 -95 -29t-92 -10h-36q-54 2 -101.5 14t-76.5 28 t-50 31.5t-30 26.5l-9 11q-42 77 -67 194.5t-31 231t-6 216zM432 438q2 -46 8 -92l8 -47q6 -49 12 -60q4 -7 54 -8h33q33 0 65 1l47 3l24 13l19 285q-2 2 -23 2q-32 0 -106 -5q-124 -9 -133 -21q-9 -21 -9 -59q1 -6 1 -12z" />
<glyph unicode="e" horiz-adv-x="1001" d="M104 841q0 145 18 260l47 48q13 3 36 8t97 15t152 13q21 1 45 1q65 0 147 -6q114 -8 222 -31l27 -36q1 -14 2.5 -39.5t5 -101t4.5 -146.5q1 -36 1 -76.5t-1 -86.5q-2 -92 -7 -165q0 -8 -111.5 -11t-222.5 -3l-111 -1l-8 -25q-6 -15 -6 -54.5t3 -81.5l4 -41l12 -68l19 -24 q7 -5 47.5 -5t77.5 2l38 2q11 1 20 2.5t15.5 6t11.5 7.5t8.5 11.5t5.5 11.5t3.5 14.5t2 14.5t2 17t1.5 17l10 10h164q1 -2 -3.5 -41.5t-19 -102t-34.5 -107.5q-3 -2 -7 -4.5t-13.5 -8.5t-15.5 -10t-6 -3l-25 -5q-24 -4 -66 -9.5t-94 -10.5q-40 -4 -84 -4h-27q-59 2 -114 9 t-105.5 28t-83.5 53l-13 48q-5 23 -12 63t-23 159q-16 118 -26 230q-9 106 -10 243v14zM454 659q2 -16 66 -21q40 -3 80 -3q24 0 48 1l65 3q6 94 8 117q4 38 -14.5 47.5t-72.5 9.5q-66 0 -110 -6.5t-56 -13.5l-11 -7q-6 -9 -6 -51q0 -30 3 -76z" />
<glyph unicode="f" horiz-adv-x="955" d="M128 700l129 -4l11 431l20 202l26 66l295 20l214 -30q20 -42 25 -109q3 -31 3 -61q0 -36 -3 -71q-7 -65 -16 -124t-18 -96l-8 -36l-248 3l-21 -31q1 -15 3 -92t2 -82l185 -6v-158q-26 -20 -46 -20q-5 -2 -31 -2q-33 0 -97 3v-77q0 -77 -1 -155q-2 -117 -5 -176l-3 -59 l-50 -15q-16 -2 -35 -2q-79 0 -208 30q-4 1 -4 125t4 372l-113 6z" />
<glyph unicode="g" horiz-adv-x="1117" d="M109 520v22q0 76 6 148q7 81 31.5 183.5t66.5 179.5q3 4 9 11t29.5 25.5t51 33t75.5 27t102 14.5q15 0 40 -0.5t84.5 -10t98.5 -28.5l1 57l279 -1l29 -39q13 -172 13 -589q0 -238 -4 -556q-1 -10 -2.5 -26.5t-12 -64t-26 -90.5t-46.5 -94.5t-70.5 -88t-102.5 -59.5 q-54 -21 -116 -21q-11 0 -22 1q-88 4 -159 15.5t-115 25.5t-76.5 30t-48 31t-24.5 27t-10 19l-1 8q-14 44 -17 44l-3 156l23 42l175 10q14 -184 14 -188q0 -2 41 -7.5t82 -10.5l41 -5q11 -2 20 -2q92 0 115 136q4 23 5 61t1 64l-1 27l3 204q-7 0 -76 1.5t-103.5 3 t-103.5 8.5t-113 18t-93.5 32t-80.5 49q-2 17 -5 47.5t-4 119.5zM461.5 476q1.5 -22 7.5 -30q7 -11 113 -19q60 -5 87 -5q20 0 22 3l-16 241l-21 12q-61 3 -100 3q-63 0 -68 -8l-11 -51q-1 -6 -2.5 -16t-5.5 -37t-5.5 -49t0 -44z" />
<glyph unicode="h" horiz-adv-x="1107" d="M110 636v183q0 297 4 538l6 313l50 15q16 2 35 2q79 0 208 -30q3 0 3 -637q40 16 122.5 29.5t203.5 13.5t218 -26q3 -17 7.5 -48t13.5 -135t13 -218q2 -57 2 -129.5t-2 -160.5q-4 -176 -20 -354q0 -1 -14 -1q-20 0 -71 2q-85 3 -169 7l-85 3q-18 673 -30 674q-37 3 -75 4 t-58 1l-19 -1l-85 -19l-22 -673l-185 1l-34 46q-15 192 -17 600z" />
<glyph unicode="i" horiz-adv-x="537" d="M100 1450q0 57 63.5 87t131.5 30q52 0 83 -14t49 -54q5 -8 5 -25q0 -54 -60 -101t-119 -47q-56 0 -104.5 35t-48.5 89zM120 510v126q0 201 4 346l6 188l50 15q18 2 39 2q85 0 214 -30q3 0 3 -63q0 -73 -4 -230q-7 -292 -16 -584l-10 -291l-235 1l-34 46q-15 190 -17 474z " />
<glyph unicode="j" horiz-adv-x="717" d="M46 -437q-3 32 -3 64q0 38 3 75q7 70 16 133.5t18 102.5l8 40l208 -3l21 31q-15 191 -17 482v129q0 207 4 357l6 196l50 15q18 2 39 2q85 0 214 -30q3 -32 3 -154q0 -85 -2 -215q-3 -315 -10 -682l-8 -367l-20 -202l-26 -96l-265 -20l-214 30q-20 42 -25 112zM280 1450 q0 57 63.5 87t131.5 30q52 0 83 -14t49 -54q5 -8 5 -25q0 -54 -60 -101t-119 -47q-56 0 -104.5 35t-48.5 89z" />
<glyph unicode="k" horiz-adv-x="1214" d="M110 603v159q0 257 4 458l6 260l50 15q14 2 32 2q72 0 201 -30q3 -1 5 -123q4 -121 4 -274v-61q0 -120 -2 -231q100 121 191.5 223t132.5 143l42 42l48 -11q26 -23 66 -61t121 -124t112 -137q2 -3 -32 -34t-91.5 -81t-120.5 -105t-132 -117.5t-114 -106.5 q60 -72 118 -146t87 -112l28 -38l-144 -119l-56 14q-109 110 -169.5 180.5t-100 129t-48.5 68.5l-12 -377l-175 1l-34 46q-15 191 -17 547z" />
<glyph unicode="l" horiz-adv-x="512" d="M110 586v160q0 259 4 461l6 263l50 15q18 2 39 2q85 0 214 -30q3 0 3 -79q0 -91 -4 -289q-7 -367 -16 -733l-10 -367l-235 1l-34 46q-15 192 -17 550z" />
<glyph unicode="m" horiz-adv-x="1614" d="M110 518v129q0 207 4 357l6 196l50 15q18 2 39 2q85 0 214 -30q3 0 3 -67q41 17 179 31q121 12 326 12h61q249 -2 501 -33q3 -74 7 -196q3 -95 2 -294v-121q-1 -292 -16 -483l-34 -46l-195 -1q-14 375 -23 673l-84 19q-31 2 -63 2q-51 0 -104 -5q3 -91 3 -182 q0 -250 -22 -504q0 -1 -12 -1q-18 0 -63 2q-75 3 -149 7l-75 3q-18 673 -30 674q-37 3 -80 4t-67 1l-25 -1l-84 -19l-23 -673l-195 1l-34 46q-15 191 -17 482z" />
<glyph unicode="n" horiz-adv-x="1051" d="M110 520v131q0 209 4 361l6 198l50 15q18 2 39 2q85 0 214 -30q3 0 3 -67q42 17 108 30t172.5 13t203.5 -26q3 -21 7.5 -59.5t13.5 -162t13 -251.5q2 -64 2 -143t-2 -173q-4 -188 -20 -366q0 -1 -12 -1q-18 0 -63 2q-75 3 -149 7l-75 3q-18 673 -30 674q-37 3 -70 4 t-47 1l-15 -1l-84 -19l-23 -673l-195 1l-34 46q-15 190 -17 484z" />
<glyph unicode="o" horiz-adv-x="975" d="M84 834q2 142 18 257l47 48q13 2 36 4t97 5q45 2 91 2q31 0 61 -1q78 -2 191.5 -14.5t222.5 -35.5l27 -36q3 -24 7 -66t6 -164q1 -34 0 -67q0 -86 -5 -168q-6 -113 -33 -253t-73 -243l-10 -10l-19.5 -19.5l-22 -22t-8.5 -7.5l-22 -5q-22 -4 -59.5 -9.5t-83.5 -10.5 q-36 -4 -76 -4h-24q-54 2 -104.5 9t-98.5 28t-81 53l-23 48q-4 21 -11 59.5t-21.5 151.5t-22.5 221q-7 91 -7 206q1 22 1 44zM291 596q0 -24 3 -48l3 -24l12 -65l16 -24q6 -5 43 -5t70 2l34 2l6 2l14 4l6 3q8 1 14 12t10 33t6 37.5t4 44.5t3 35q3 35 -13.5 43.5t-65.5 8.5 q-60 0 -100 -6.5t-50 -12.5l-10 -6q-5 -12 -5 -36z" />
<glyph unicode="p" horiz-adv-x="1206" d="M158 -514q-10 555 -10 937q0 486 16 690l29 39l309 -19l11 -57q39 19 95 29t92 10h36q54 -2 101.5 -14t76.5 -28t50 -31.5t30 -26.5l9 -11q42 -77 67 -194.5t31 -231t6 -216t-5 -165.5l-4 -63q-36 -33 -108.5 -57t-150 -34.5t-149.5 -16t-118 -5.5h-47l11 -231v-162 q0 -130 -1 -131q-60 -14 -143 -20q-72 -5 -122 -5h-16l-53 1zM514 202q2 -2 23 -2q32 0 106 5q124 9 133 21q9 21 9 59q0 5 -1 11q-1 47 -8 94l-8 46q-6 49 -12 60q-4 7 -54 8h-25q-37 0 -73 -2l-47 -2l-24 -13z" />
<glyph unicode="q" horiz-adv-x="1183" d="M109 360v29q0 101 6 193q7 104 31.5 224.5t66.5 197.5q3 4 9 11t29.5 25.5t51 33t75.5 27t102 14.5q15 0 40 -0.5t84.5 -10t98.5 -28.5l11 57l339 19l29 -39q12 -163 14 -569v-184q0 -298 -4 -548l-4 -326l-43 -13q-42 -1 -81 -1q-172 0 -283 25l-1 293l11 231h-48.5 t-114 5.5t-154 16t-145.5 34.5t-111 57q-2 24 -5 66t-4 160zM431.5 262.5q1.5 -26.5 8.5 -36.5q9 -12 133 -21q74 -5 106 -5q21 0 23 2l-19 285l-24 13q-80 5 -128 5q-66 0 -71 -9q-3 -5 -6 -20t-4 -28l-2 -12q-1 -7 -3 -19t-6.5 -44t-6.5 -58t-0.5 -52.5z" />
<glyph unicode="r" horiz-adv-x="952" d="M110 518v129q0 207 4 357l6 196l50 15q24 2 50 2q105 0 233 -30q3 0 3 -67q134 55 249 55q66 0 125 -18q1 -14 2 -38.5t4.5 -91t5.5 -124.5q2 -59 4 -119q2 -48 2 -81v-15q0 -36 -4 -36l-351 29l-44 -19l-23 -673l-265 1l-34 46q-15 191 -17 482z" />
<glyph unicode="s" horiz-adv-x="1024" d="M122 602q0 144 12 323.5t27 199.5q18 26 20 27q10 8 317 28q244 16 312 15q17 0 23 -1q11 -2 20 -247q4 -105 4 -165q0 -80 -7 -82h-462l-10 -122l567 -33l11 -13q-17 -509 -31 -509q-1 0 -22 -0.5t-54 -0.5t-76.5 -0.5t-93.5 -0.5h-100t-102 1t-94 3q-38 1 -74 3 t-60 3.5t-43 2.5t-28.5 2t-10.5 1q-4 0 -7 47t-4 94l-1 47q15 25 16 27q308 -43 324 -43q20 133 26 178q-124 6 -223 17.5t-136 19.5l-37 9q-3 21 -3 131v38z" />
<glyph unicode="t" horiz-adv-x="906" d="M88 716l10 148q47 3 113 6q-4 248 -4 372t4 125q71 16 132 23q53 6 79 6h7l25 -1l50 -15q1 -23 3 -65q3 -43 5 -165q2 -88 1 -171v-66q64 3 97 3q26 0 31 -2q9 0 20.5 -5t18.5 -10l7 -5v-158l-185 -6q0 -5 -2 -82t-3 -92l21 -31l248 3q4 -14 9.5 -38.5t16.5 -92 t16 -127.5q2 -30 2 -62t-2 -66q-5 -68 -25 -111l-214 -30l-295 20l-26 66l-20 202q-6 241 -11 431z" />
<glyph unicode="u" horiz-adv-x="1062" d="M110 518q-2 61 -2 136.5t2 166.5q4 182 20 361q0 1 12 1q18 0 63 -2q75 -3 149 -7l75 -3q18 -673 30 -674q37 -3 70 -4t47 -1l15 1l84 19l23 673l195 -1l34 -46q15 -191 17 -472v-125q0 -199 -4 -341l-6 -186l-50 -15q-18 -2 -39 -2q-85 0 -214 30q-3 0 -3 67 q-42 -17 -108 -30t-172.5 -13t-203.5 26q-3 19 -7.5 54t-13.5 150t-13 237z" />
<glyph unicode="v" horiz-adv-x="1039" d="M51 1006l12 32q297 129 432 154q2 0 40 -111.5t75 -223.5l37 -112l142 433l43 9q154 -43 154 -61q0 -4 -44 -214l-92 -428l-47 -213l-81 -273l-350 -13z" />
<glyph unicode="w" horiz-adv-x="1236" d="M99 45q-2 0 -2 55q0 68 3 222q5 276 12 550l7 276l395 7l30 -823l110 158l38 67l143 -180q-9 570 -9 586l4 207l24 8l241 -8l25 -35q10 -143 12 -425q0 -77 1 -148q0 -191 -3 -346l-5 -211l-37 -11q-19 -2 -50 -4q-9 -1 -20 -1q-30 1 -81 5q-70 6 -110 27l-151 202 l-117 -190l-37 -12q-38 -1 -73 -1q-246 0 -350 25z" />
<glyph unicode="x" horiz-adv-x="1184" d="M84 962l23 30q114 79 221 126l8 -10q8 -10 26 -35t35 -48.5t49 -68t55 -76.5l215 319l36 -9q360 -217 360 -247q0 -2 -319 -472l229 -320l-199 -134l-39 12l-157 196q-120 -179 -164 -249l-359 224l-4 40q51 100 226 372z" />
<glyph unicode="y" horiz-adv-x="1149" d="M73 981l15 32q10 6 27 16t66.5 36t94.5 47t99.5 40t92.5 23q2 0 52.5 -94t99.5 -188l49 -94l162 350l43 7q219 -110 219 -122q0 -4 -81 -227q-82 -226 -164 -451l-83 -226l-297 -492h-3q-34 0 -73 22q-42 23 -76.5 56.5t-64 67.5t-46.5 58t-16 25l260 397z" />
<glyph unicode="z" horiz-adv-x="1083" d="M81 942q1 112 16 180l15 68q70 7 194 7q98 -1 230 -5q299 -10 424 -24q5 -58 10.5 -166t9.5 -248q1 -39 0 -70q0 -81 -6 -114q1 -3 -69.5 -66t-181 -154t-195.5 -153l354 -8l12 -41q3 -3 7 -11.5t4 -50t-14 -100.5q0 -2 -44 -2q-48 0 -149 2q-192 6 -384 14l-192 8 l-11 180l220 205l359 286q-110 -8 -258 -8q-36 1 -76 1q-196 2 -249 15q-26 139 -26 247v8z" />
<glyph unicode="{" horiz-adv-x="847" d="M56 718q171 212 172 216l55 1029l137 33l362 -16l12 -368l-258 -34l12 -583l-8 -35l-174 -190l185 -190l27 -648l192 -34l6 -364l-49 -30l-447 36q-18 49 -29.5 298t-14.5 474l-2 224z" />
<glyph unicode="|" horiz-adv-x="448" d="M41.5 688q1.5 410 20.5 828l324 -20q29 -1312 40 -1542l-374 -8q-4 71 -8 201.5t-2.5 540.5z" />
<glyph unicode="}" horiz-adv-x="842" d="M56 1612l12 368l362 16l137 -33l55 -1029l172 -216l-178 -182q0 -36 -1 -96.5t-4 -219t-7.5 -285.5t-13.5 -245.5t-20 -149.5l-447 -36l-49 30l6 364l192 34l27 648l185 190l-174 190l-8 35q10 524 12 583z" />
<glyph unicode="~" horiz-adv-x="1207" d="M110 890q3 7 9.5 18t32 44t58 63t89.5 67t123 64l352 -128l182 120l196 -260l-322 -218l-378 156l-170 -156z" />
<glyph unicode="&#xa1;" horiz-adv-x="610" d="M72 1480q9 2 24.5 6t66.5 12t104.5 13t133 5t157.5 -8l-132 -1500l-56 -40h-254q-8 116 -18.5 300t-23.5 591t-2 621zM90 -340q0 57 63.5 87t131.5 30q52 0 83 -14t49 -54q5 -8 5 -25q0 -54 -60 -101t-119 -47q-56 0 -104.5 35t-48.5 89z" />
<glyph unicode="&#xa9;" horiz-adv-x="1458" d="M78.5 1484q0.5 192 25.5 356q4 5 11.5 13.5t22.5 25t24.5 25.5t8.5 4q-1 -3 64 6t183.5 21.5t258.5 19.5t316 -3.5t330 -43.5l39 -50q4 -33 9 -91t9 -227t-5.5 -325.5t-47.5 -353t-104 -343.5l-14 -14t-28 -27.5t-31.5 -30.5t-12.5 -11l-40 -7q-40 -6 -107 -14 t-150.5 -14.5t-176.5 -5t-179 12t-163 39.5t-123 75l-19 69q-7 27 -17.5 75.5t-34 195t-36.5 289t-12.5 334.5zM353 1370.5q2 -128.5 5.5 -255t7.5 -213.5l3 -87l29 -171l44 -60q15 -13 173 -13t307 5l150 5q0 -2 17 3.5t33 11.5l17 7q32 3 52.5 223.5t31 503t12.5 306.5 q4 39 -3 64.5t-20 39.5t-44 21t-58 8.5t-80 1.5q-155 0 -321 -16.5t-255 -32.5l-88 -16q-9 -13 -12 -110t-1 -225.5zM524.5 1157q2.5 -93 21.5 -219.5t57 -235.5l99 -2q286 31 365 41l-3 111q-51 1 -107 -2t-97 -3q-103 0 -112 14l-10 46q-1 5 -2.5 14t-4.5 33.5t-4.5 44 t0 39.5t6.5 28q7 11 94 15t179 4.5t101 2.5q2 11 4.5 23.5t3.5 18t2 16.5t1 26q0 229 -6 323q-86 10 -297.5 21t-269.5 4q-3 -17 -7.5 -48.5t-10 -126.5t-3 -188z" />
<glyph unicode="&#xad;" d="M63 918l656 10l-6 -332l-609 31l-40 17q-1 270 -1 274z" />
<glyph unicode="&#xae;" horiz-adv-x="1458" d="M78.5 1504q0.5 192 25.5 356q4 5 11.5 13.5t22.5 25t24.5 25.5t8.5 4q-1 -3 64 6t183.5 21.5t258.5 19.5t316 -3.5t330 -43.5l39 -50q4 -33 9 -91t9 -227t-5.5 -325.5t-47.5 -353t-104 -343.5l-14 -14t-28 -27.5t-31.5 -30.5t-12.5 -11l-40 -7q-40 -6 -107 -14 t-150.5 -14.5t-176.5 -5t-179 12t-163 39.5t-123 75l-19 69q-7 27 -17.5 75.5t-34 195t-36.5 289t-12.5 334.5zM353 1390.5q2 -128.5 5.5 -255t7.5 -213.5l3 -87l29 -171l44 -60q15 -13 173 -13t307 5l150 5q0 -2 17 3.5t33 11.5l17 7q32 3 52.5 223.5t31 503t12.5 306.5 q4 39 -3 64.5t-20 39.5t-44 21t-58 8.5t-80 1.5q-155 0 -321 -16.5t-255 -32.5l-88 -16q-9 -13 -12 -110t-1 -225.5zM478.5 1419q5.5 -99 17.5 -175l11 -77l5 -21q6 -4 8 -6l1 -261l220 -23l8 11q-1 28 -3 45.5t-5 31t-10 59t-16 109.5q32 -4 64 -4l112 -286l152 15l3 13 q-12 27 -22.5 48.5t-20 39.5t-38.5 69.5t-58 106.5l47 7l6 6l14 12l6 6q20 44 31.5 109t14 126t2 115.5t-3.5 88.5l-2 33l-12 15q-92 17 -205 15t-207 -9l-94 -6q1 5 -20 -20q-11 -94 -5.5 -193zM731 1393q0 16 0.5 27t1.5 19.5t2 10.5q9 17 100 17q33 0 44 -5.5t9 -29.5 q-1 -8 -3.5 -71.5t-8 -113t-13.5 -49.5q-1 0 -3 -1t-6 -2.5t-6 -2.5h-3l-21 -2q-20 -1 -42.5 -1t-26.5 4l-12 15l-7 45q0 2 -0.5 6.5t-1 17l-1 25t-1 29.5t-1 31.5t-0.5 30.5z" />
<glyph unicode="&#xbf;" horiz-adv-x="1026" d="M44 1303q0 39 1.5 54t5 34.5t6.5 56.5q637 73 813 51q4 -44 10.5 -115t16 -227.5t6.5 -238.5l-20 -507q-1 -16 -4 -38q-1 -10 -9.5 -20.5t-16.5 -16.5l-8 -6q-34 -10 -95.5 -13t-105.5 -1l-44 3l-10 -10q-2 -17 -2 -31l1 -167q-46 -15 -82.5 -21t-56 -4.5t-32.5 5.5 t-18 7l-5 4q-1 -1 -1 22.5t0.5 61t1 83t1 91.5t1 84t0.5 62l1 23l13 15h73q35 0 56.5 4t30.5 14.5t10.5 15.5t3.5 18q11 52 5 183t-27 161q-15 22 -125 30t-232.5 9t-140.5 5q-22 127 -22 319zM330 -220q0 57 63.5 87t131.5 30q52 0 83 -14t49 -54q5 -8 5 -25 q0 -54 -60 -101t-119 -47q-56 0 -104.5 35t-48.5 89z" />
<glyph unicode="&#xf7;" horiz-adv-x="2571" d="M75 358l304 240q-18 98 -8 185q22 193 150 238q125 59 275 -61q126 -100 202 -284q77 -186 58 -340v-1q-21 -192 -151 -239q-124 -58 -275 61q-125 99 -201 283q-23 54 -35 97l-201 -243zM512 767q-13 -121 49 -272q62 -149 160 -226q72 -57 130 -42q54 29 63 122 q13 125 -48 274q-60 145 -160 224q-74 59 -130 43q-53 -27 -64 -123zM683 602q-5 -151 90 -244q-120 91 -90 244zM708 639q7 -170 108 -275q-123 95 -108 275zM743 617q-8 47 7 53q12 5 40 -36q28 -45 50 -102q20 -54 31 -110q8 -48 -5 -52q-14 -5 -40 35q-27 41 -51 103 q-25 63 -32 109zM1169 769q30 226 141 379q136 182 293 153q159 -12 241 -222q40 -99 47 -212l630 -65l-128 -143l-500 140q-2 -64 -10 -124q-30 -229 -141 -379q-134 -182 -291 -153q-161 14 -243 223q-69 174 -39 403zM1335 748q-24 -188 28 -323q39 -102 109 -118 q69 -3 134 86q87 119 111 305q24 182 -29 321q-39 103 -108 119q-68 2 -134 -88q-89 -122 -111 -302zM1492 577q-6 57 4 147q8 90 27 143q10 30 19 44.5t19 13.5q18 -3 24 -65q6 -64 -2 -146q-9 -86 -28 -144q-10 -29 -19.5 -43.5t-18.5 -13.5q-19 2 -25 64zM1580 524 q91 162 42 375q78 -219 -42 -375zM1636 531q85 148 29 331q89 -180 -29 -331z" />
<glyph unicode="&#x2000;" horiz-adv-x="1026" />
<glyph unicode="&#x2001;" horiz-adv-x="2052" />
<glyph unicode="&#x2002;" horiz-adv-x="1026" />
<glyph unicode="&#x2003;" horiz-adv-x="2052" />
<glyph unicode="&#x2004;" horiz-adv-x="684" />
<glyph unicode="&#x2005;" horiz-adv-x="513" />
<glyph unicode="&#x2006;" horiz-adv-x="342" />
<glyph unicode="&#x2007;" horiz-adv-x="342" />
<glyph unicode="&#x2008;" horiz-adv-x="256" />
<glyph unicode="&#x2009;" horiz-adv-x="410" />
<glyph unicode="&#x200a;" horiz-adv-x="114" />
<glyph unicode="&#x2010;" d="M63 918l656 10l-6 -332l-609 31l-40 17q-1 270 -1 274z" />
<glyph unicode="&#x2011;" d="M63 918l656 10l-6 -332l-609 31l-40 17q-1 270 -1 274z" />
<glyph unicode="&#x2012;" d="M63 918l656 10l-6 -332l-609 31l-40 17q-1 270 -1 274z" />
<glyph unicode="&#x2013;" horiz-adv-x="1151" d="M63 918l1024 10l-9 -332l-951 31l-62 17q-2 270 -2 274z" />
<glyph unicode="&#x2014;" horiz-adv-x="2175" d="M63 918l2048 10l-19 -332l-1901 31l-125 17q-3 270 -3 274z" />
<glyph unicode="&#x202f;" horiz-adv-x="410" />
<glyph unicode="&#x205f;" horiz-adv-x="513" />
<glyph unicode="&#x20ac;" horiz-adv-x="1510" d="M53 608q0 2 213 3q-10 151 -1 372.5t25 423.5l17 202q116 15 538 -8t595 -43q5 -61 9 -305t4 -340q0 -31 -1.5 -52.5t-4 -33t-7.5 -36t-9 -47.5q-19 -4 -203.5 -5t-357 -9t-187.5 -30t-15 -86l401 14q-3 -107 -6 -102l-390 -16q2 -26 8 -60t6 -35q121 5 235.5 11t163.5 9 l50 3l1 -44l-39 -19l-397 -40q8 -36 12 -45q10 -15 93.5 -21.5t129.5 -6.5q85 0 197 6t212 5l5 -223q-639 -77 -928 -77q-78 25 -121 330l-189 -17l-9 76q-1 12 -2 26l187 9q-12 107 -13 124l-181 6l-40 17q-1 60 -1 64z" />
<glyph unicode="&#x25fc;" horiz-adv-x="1200" d="M0 0v1200h1200v-1200h-1200z" />
</font>
</defs>
</svg>
